<svg width="228" height="68" viewBox="0 0 228 68" fill="none" xmlns="http://www.w3.org/2000/svg">
<g clip-path="url(#clip0_1056_6521)">
<path d="M69.4355 36.4902H85.5056V41.0168H76.945V44.7952H84.7765V49.3217H76.945V53.4126H85.6287V57.9391H69.4355V36.4902Z" fill="black"/>
<path d="M89.4355 36.4902H96.945V52.5603H105.373V57.9391H89.4355V36.4902Z" fill="black"/>
<path d="M107.76 36.4902H115.279V52.5603H123.697V57.9391H107.76V36.4902Z" fill="black"/>
<path d="M140.288 36.3857H122.409V37.9767H130.458V58.0429H132.343V37.9767H140.392V36.3857H140.288Z" fill="black"/>
<path d="M144.966 37.9861H148.347C151.879 37.9861 153.905 39.4729 153.905 42.0581C153.905 44.6433 151.954 46.1679 148.413 46.1679H144.966V37.9861ZM154.663 50.4577C153.65 48.9331 152.835 47.8346 151.898 47.2664C154.549 46.2437 155.913 44.4918 155.913 42.0202C155.913 40.3251 155.212 36.3857 148.697 36.3857H143.091V58.0429H144.966V47.7588H147.75C150.316 47.7588 151.112 48.1376 153.64 52.1149L157.381 57.9956L159.417 58.0429H159.606L154.663 50.4577Z" fill="black"/>
<path d="M163.735 36.3857H161.964V58.0429H163.839V36.3857H163.735Z" fill="black"/>
<path d="M177.949 56.576C172.636 56.576 168.469 52.4662 168.469 47.22C168.469 41.9738 172.636 37.8639 177.949 37.8639C183.261 37.8639 187.371 41.9738 187.371 47.22C187.371 52.4662 183.233 56.576 177.949 56.576ZM177.892 36.1025C171.481 36.1025 166.462 40.9794 166.462 47.2105C166.462 53.4416 171.481 58.3184 177.892 58.3184C184.303 58.3184 189.379 53.4416 189.379 47.2105C189.379 40.9794 184.331 36.1025 177.892 36.1025Z" fill="black"/>
<path d="M211.737 36.3864H209.966V54.9565C209.607 54.5398 193.896 36.4243 193.896 36.4243L192.4 36.3864H192.296V58.0436H194.171V39.4735C194.531 39.8902 210.279 57.9963 210.279 57.9963L211.737 58.0341H211.841V36.377H211.737V36.3864Z" fill="black"/>
<path d="M54.6913 51.9929C52.1439 51.9929 50.0701 49.919 50.0701 47.3717C50.0701 44.8243 52.1439 42.7504 54.6913 42.7504C56.3201 42.7504 57.75 43.5932 58.5739 44.8717H66.0549C64.9091 39.6539 60.2595 35.7334 54.7008 35.7334C48.2803 35.7334 43.0625 40.9512 43.0625 47.3717C43.0625 53.7921 48.2803 59.0099 54.7008 59.0099C60.5152 59.0099 65.3352 54.7107 66.1875 49.133H58.9716C58.2803 50.8092 56.6231 52.0023 54.7008 52.0023" fill="black"/>
<path d="M54.4357 26.964C50.8088 26.964 47.8732 24.0284 47.8732 20.4015C47.8732 16.7746 50.8088 13.839 54.4357 13.839C58.0626 13.839 60.9982 16.7746 60.9982 20.4015C60.9982 24.0284 58.0626 26.964 54.4357 26.964ZM54.4357 9C48.1383 9 43.0342 14.1042 43.0342 20.4015C43.0342 26.6989 48.1383 31.803 54.4357 31.803C60.733 31.803 65.8372 26.6989 65.8372 20.4015C65.8372 14.1042 60.733 9 54.4357 9Z" fill="#55B954"/>
<path d="M16.1592 47.1056C16.1592 53.403 21.2633 58.5071 27.5607 58.5071C33.858 58.5071 38.9622 53.403 38.9622 47.1056C38.9622 40.8083 33.858 35.7041 27.5607 35.7041C21.2633 35.7041 16.1592 40.8083 16.1592 47.1056Z" fill="#55B954"/>
<path d="M27.6176 30.0608C22.3051 30.0608 17.9775 25.7426 17.9775 20.4207C17.9775 15.0987 22.2957 10.79 27.6176 10.79C32.9396 10.79 37.2483 15.1176 37.2483 20.4301C37.2483 25.7426 32.9301 30.0703 27.6176 30.0703M27.6176 9.03809C21.3392 9.03809 16.2256 14.1423 16.2256 20.4207C16.2256 26.6991 21.3392 31.8127 27.6176 31.8127C33.896 31.8127 39.0097 26.7085 39.0097 20.4207C39.0097 14.1328 33.896 9.03809 27.6176 9.03809Z" fill="#55B954"/>
</g>
<defs>
<clipPath id="clip0_1056_6521">
<rect width="195.682" height="50" fill="white" transform="translate(16.1592 9)"/>
</clipPath>
</defs>
</svg>
