<svg width="228" height="68" viewBox="0 0 228 68" fill="none" xmlns="http://www.w3.org/2000/svg">
<g clip-path="url(#clip0_1048_7976)">
<path d="M12.3759 11.291C5.55007 11.291 0 16.8471 0 23.6804V56.7093H4.12531V23.6804C4.12531 19.1218 7.82225 15.4208 12.3759 15.4208H215.633C220.187 15.4208 223.884 19.1218 223.884 23.6804V56.7093H228.009V23.6804C228.009 16.8471 222.459 11.291 215.633 11.291H12.3759Z" fill="#231F20"/>
<path d="M38.0031 48.0105C38.0031 48.3368 37.7982 48.4486 37.4443 48.4486H34.3806C34.0268 48.4486 33.915 48.3274 33.915 47.9732V39.639C33.915 39.2568 33.645 39.0517 33.2632 39.0517H25.236C24.8822 39.0517 24.6773 39.2568 24.6773 39.639V47.9732C24.6773 48.3274 24.4724 48.4486 24.1465 48.4486H21.0269C20.7382 48.4486 20.6172 48.3274 20.6172 48.0105V27.3149C20.6172 26.9886 20.7382 26.8115 21.0269 26.8115H24.1465C24.4724 26.8115 24.6773 26.9886 24.6773 27.3149V35.3228C24.6773 35.705 24.8822 35.8821 25.236 35.8821H33.2632C33.645 35.8821 33.915 35.705 33.915 35.3228V27.3149C33.915 26.9886 34.0268 26.8115 34.3806 26.8115H37.4443C37.7982 26.8115 38.0031 26.9886 38.0031 27.3149V48.0105Z" fill="#231F20"/>
<path d="M45.3879 48.7466C43.125 48.7466 41.9424 46.9194 41.9424 45.3626V32.4978C41.9424 32.1156 42.0914 31.9385 42.4452 31.9385H45.3879C45.6766 31.9385 45.8908 32.1156 45.8908 32.4978V44.9245C45.8908 45.2787 46.0398 45.4558 46.4495 45.4558H51.8319C52.1858 45.4558 52.4186 45.2787 52.4186 44.9245V32.4978C52.4186 32.1156 52.5676 31.9385 52.9215 31.9385H55.8641C56.1901 31.9385 56.3949 32.1156 56.3949 32.4978V51.2543C56.3949 51.7204 56.2459 52.1679 56.0411 52.6061L54.0389 55.8782C53.862 56.1765 53.6013 56.3536 53.3033 56.3536H52.9215C52.5676 56.3536 52.4186 56.1485 52.4186 55.8223V47.5161C52.4186 47.1618 52.2137 47.0127 51.8878 47.1059L46.2446 48.6907C45.9746 48.7466 45.658 48.7466 45.3879 48.7466Z" fill="#231F20"/>
<path d="M63.7046 48.7186C61.9073 48.7186 60.3242 47.2457 60.3242 45.3346V32.4978C60.3242 32.1156 60.4732 31.9385 60.8271 31.9385H63.7977C64.0677 31.9385 64.2726 32.1156 64.2726 32.4978V44.9245C64.2726 45.2787 64.4495 45.4279 64.8593 45.4279H70.2417C70.5956 45.4279 70.8284 45.2787 70.8284 44.9245V32.4978C70.8284 32.1156 70.9494 31.9385 71.3033 31.9385H74.246C74.5719 31.9385 74.7768 32.1156 74.7768 32.4978V48.0102C74.7768 48.3364 74.5719 48.4483 74.246 48.4483H71.3033C70.9494 48.4483 70.8284 48.3271 70.8284 47.9729V47.4974C70.8284 47.1152 70.5956 46.9661 70.2697 47.0872L64.6265 48.6161C64.3378 48.7093 64.0119 48.7093 63.7139 48.7093L63.7046 48.7186Z" fill="#231F20"/>
<path d="M93.141 35.1177V48.0104C93.141 48.3367 92.9361 48.4486 92.6102 48.4486H89.6676C89.3137 48.4486 89.1926 48.3274 89.1926 47.9731V35.5465C89.1926 35.1643 88.9598 34.9592 88.606 34.9592H83.2235C82.8138 34.9592 82.6368 35.1643 82.6368 35.5465V47.9731C82.6368 48.3274 82.432 48.4486 82.1619 48.4486H79.1913C78.8375 48.4486 78.6885 48.3274 78.6885 48.0104V32.4981C78.6885 32.1159 78.8375 31.9388 79.1913 31.9388H82.1619C82.432 31.9388 82.6368 32.1159 82.6368 32.4981V33.0015C82.6368 33.3278 82.7858 33.4676 83.2235 33.3558L88.8388 31.8269C89.1275 31.771 89.3975 31.6777 89.6862 31.6777C91.6324 31.6777 93.1317 33.2998 93.1317 35.127L93.141 35.1177Z" fill="#231F20"/>
<path d="M96.4932 45.335V37.9144C96.4932 36.3296 97.173 35.1177 98.5791 34.3533L101.699 32.5261C102.351 32.116 102.993 31.9388 103.757 31.9388H106.457C106.839 31.9388 107.016 31.7897 107.016 31.4354V25.3386C107.016 25.0124 107.165 24.7793 107.454 24.7793H110.452C110.806 24.7793 110.955 25.0124 110.955 25.3386V48.0105C110.955 48.3368 110.806 48.4487 110.452 48.4487H107.454C107.156 48.4487 107.016 48.3275 107.016 47.9732V47.4978C107.016 47.1156 106.839 46.9664 106.457 47.0876L100.786 48.6165C100.46 48.7097 100.199 48.7097 99.9014 48.7097C98.3742 48.7656 96.4932 47.3579 96.4932 45.3257V45.335ZM107.016 44.9155V35.5839C107.016 35.1737 106.839 34.9686 106.429 34.9686H100.991C100.581 34.9686 100.432 35.1737 100.432 35.5839V44.9155C100.432 45.2697 100.581 45.4189 100.991 45.4189H106.429C106.839 45.4189 107.016 45.2697 107.016 44.9155Z" fill="#231F20"/>
<path d="M117.725 48.7186C115.872 48.7186 114.316 47.2178 114.316 45.3346V37.9141C114.316 36.3293 114.996 35.1174 116.374 34.353L119.522 32.5258C120.174 32.1156 120.816 31.9385 121.552 31.9385H128.285C128.611 31.9385 128.788 32.1156 128.788 32.4978V48.0102C128.788 48.3364 128.611 48.4483 128.285 48.4483H125.286C124.96 48.4483 124.849 48.3271 124.849 47.9729V47.4974C124.849 47.1152 124.644 46.9661 124.262 47.0872L118.619 48.6161C118.293 48.7093 118.032 48.7093 117.734 48.7093L117.725 48.7186ZM124.839 44.9151V35.5835C124.839 35.1733 124.634 34.9682 124.253 34.9682H118.814C118.404 34.9682 118.255 35.1733 118.255 35.5835V44.9151C118.255 45.2694 118.404 45.4185 118.814 45.4185H124.253C124.634 45.4185 124.839 45.2694 124.839 44.9151Z" fill="#231F20"/>
<path d="M136.656 27.7531C136.656 28.1074 136.452 28.2192 136.154 28.2192H133.211C132.829 28.2192 132.708 28.098 132.708 27.7531V25.3386C132.708 25.0124 132.82 24.7793 133.211 24.7793H136.154C136.452 24.7793 136.656 25.0124 136.656 25.3386V27.7531ZM136.656 48.0105C136.656 48.3368 136.452 48.4487 136.154 48.4487H133.211C132.829 48.4487 132.708 48.3275 132.708 48.0105V32.4982C132.708 32.116 132.82 31.9388 133.211 31.9388H136.154C136.452 31.9388 136.656 32.116 136.656 32.4982V48.0105Z" fill="#231F20"/>
<path d="M144.907 44.207V33.0482C144.907 31.3981 145.615 30.1303 147.049 29.2819L150.495 27.3709C151.109 26.9886 151.845 26.8115 152.525 26.8115H159.816C160.17 26.8115 160.347 26.9886 160.347 27.3429V29.4964C160.347 29.8226 160.17 29.9625 159.816 29.9625H149.61C149.256 29.9625 149.107 30.1676 149.107 30.5498V44.7383C149.107 45.1206 149.256 45.2977 149.61 45.2977H160.105C160.431 45.2977 160.636 45.4468 160.636 45.7358C160.636 46.0621 160.487 46.3231 160.161 46.5003L157.637 47.9172C156.957 48.2995 156.259 48.4486 155.551 48.4486H149.2C147.114 48.4486 144.907 46.9477 144.907 44.207Z" fill="#231F20"/>
<path d="M166.502 48.7186C164.649 48.7186 163.094 47.2178 163.094 45.3346V37.9141C163.094 36.3293 163.774 35.1174 165.152 34.353L168.299 32.5258C168.951 32.1156 169.594 31.9385 170.329 31.9385H177.062C177.388 31.9385 177.565 32.1156 177.565 32.4978V48.0102C177.565 48.3364 177.388 48.4483 177.062 48.4483H174.064C173.738 48.4483 173.626 48.3271 173.626 47.9729V47.4974C173.626 47.1152 173.421 46.9661 173.039 47.0872L167.396 48.6161C167.07 48.7093 166.809 48.7093 166.511 48.7093L166.502 48.7186ZM173.617 44.9151V35.5835C173.617 35.1733 173.412 34.9682 173.03 34.9682H167.592C167.182 34.9682 167.033 35.1733 167.033 35.5835V44.9151C167.033 45.2694 167.182 45.4185 167.592 45.4185H173.03C173.412 45.4185 173.617 45.2694 173.617 44.9151Z" fill="#231F20"/>
<path d="M192.315 34.5217C192.315 34.82 192.111 34.9598 191.785 34.9598H185.992C185.611 34.9598 185.462 35.1649 185.462 35.5471V47.9738C185.462 48.328 185.229 48.4492 184.931 48.4492H181.96C181.606 48.4492 181.485 48.328 181.485 48.011V32.4987C181.485 32.1165 181.606 31.9394 181.96 31.9394H184.931C185.229 31.9394 185.462 32.1165 185.462 32.4987V32.9648C185.462 33.2911 185.611 33.4309 185.992 33.4309C186.086 33.4309 186.197 33.4309 186.318 33.375L188.023 32.2563C188.637 31.9301 189.289 31.7529 190.053 31.7529H191.785C192.111 31.7529 192.315 31.9301 192.315 32.2563V34.5217Z" fill="#231F20"/>
<path d="M192.912 45.335V37.9144C192.912 36.3296 193.592 35.1177 194.998 34.3533L198.118 32.5261C198.769 32.116 199.412 31.9388 200.176 31.9388H202.885C203.267 31.9388 203.444 31.7897 203.444 31.4354V25.3386C203.444 25.0124 203.593 24.7793 203.882 24.7793H206.88C207.234 24.7793 207.383 25.0124 207.383 25.3386V48.0105C207.383 48.3368 207.234 48.4487 206.88 48.4487H203.882C203.593 48.4487 203.444 48.3275 203.444 47.9732V47.4978C203.444 47.1156 203.267 46.9664 202.885 47.0876L197.205 48.6165C196.879 48.7097 196.618 48.7097 196.32 48.7097C194.793 48.7656 192.912 47.3579 192.912 45.3257V45.335ZM203.435 44.9155V35.5839C203.435 35.1737 203.258 34.9686 202.848 34.9686H197.41C197 34.9686 196.851 35.1737 196.851 35.5839V44.9155C196.851 45.2697 197 45.4189 197.41 45.4189H202.848C203.258 45.4189 203.435 45.2697 203.435 44.9155Z" fill="#231F20"/>
</g>
<defs>
<clipPath id="clip0_1048_7976">
<rect width="228" height="45.4183" fill="white" transform="translate(0 11.291)"/>
</clipPath>
</defs>
</svg>
