<svg width="228" height="68" viewBox="0 0 228 68" fill="none" xmlns="http://www.w3.org/2000/svg">
<g clip-path="url(#clip0_1048_7949)">
<path d="M4.08425 52.2771H0V15.9191L4.08425 14.9951V52.2771ZM15.8956 25.9296L19.103 28.3131L10.6932 38.8121L20.4154 50.4292L17.208 52.9539L5.88509 39.0063L15.8956 25.9296Z" fill="#1E1E1E"/>
<path d="M32.7091 37.4524H37.8114V35.3631C37.8114 31.326 36.0106 29.7252 32.609 29.7252C30.2256 29.7252 27.5537 30.455 25.4645 31.426L24.2463 28.56C26.824 27.1005 29.9313 26.2295 32.7032 26.2295C38.7766 26.2295 41.7427 29.1485 41.7427 35.5632V52.2828H38.7295L38.241 49.4638C35.7163 51.5059 32.456 52.6712 29.8783 52.6712C25.3586 52.6712 22.6338 49.9464 22.6338 45.3796C22.6338 40.1771 26.1354 37.4582 32.6973 37.4582L32.7091 37.4524ZM37.8173 46.4448V40.3184H33.2505C28.6307 40.3184 26.5415 41.8721 26.5415 45.1795C26.5415 47.8513 28.001 49.3579 30.6257 49.3579C33.0092 49.3579 36.1165 48.0926 37.8173 46.4389V46.4448Z" fill="#1E1E1E"/>
<path d="M53.1243 52.2771H49.04V15.9191L53.1243 14.9951V52.2771ZM64.9357 25.9296L68.143 28.3131L59.7332 38.8121L69.4554 50.4292L66.248 52.9539L54.9251 39.0063L64.9357 25.9296Z" fill="#1E1E1E"/>
<path d="M81.7501 37.4524H86.8524V35.3631C86.8524 31.326 85.0516 29.7252 81.65 29.7252C79.2666 29.7252 76.5947 30.455 74.5055 31.426L73.2873 28.56C75.865 27.1005 78.9723 26.2295 81.7442 26.2295C87.8176 26.2295 90.7837 29.1485 90.7837 35.5632V52.2828H87.7705L87.2821 49.4638C84.7573 51.5059 81.497 52.6712 78.9193 52.6712C74.3996 52.6712 71.6748 49.9464 71.6748 45.3796C71.6748 40.1771 75.1764 37.4582 81.7383 37.4582L81.7501 37.4524ZM86.8583 46.4448V40.3184H82.2915C77.6717 40.3184 75.5825 41.8721 75.5825 45.1795C75.5825 47.8513 77.042 49.3579 79.6667 49.3579C82.0502 49.3579 85.1575 48.0926 86.8583 46.4389V46.4448Z" fill="#1E1E1E"/>
<path d="M119.373 39.5416C119.373 48.0455 115.141 52.7654 107.997 52.7654C100.852 52.7654 96.6211 48.0514 96.6211 39.5416C96.6211 31.0317 100.947 26.2236 107.997 26.2236C115.047 26.2236 119.373 30.9847 119.373 39.5416ZM100.852 39.5416C100.852 46.0093 103.477 49.4109 107.997 49.4109C112.517 49.4109 115.141 46.0093 115.141 39.5416C115.141 33.0739 112.517 29.5781 107.997 29.5781C103.477 29.5781 100.852 33.0798 100.852 39.5416Z" fill="#1E1E1E"/>
<path d="M125.446 51.499V16.0119L131.961 14.8467V27.5349C133.515 26.5639 135.557 25.8812 137.793 25.8812C144.696 25.8812 147.904 30.5952 147.904 38.8107C147.904 47.7031 143.043 53.0056 134.974 53.0056C131.231 53.0056 127.247 52.2758 125.446 51.499ZM131.961 31.7133V47.9503C132.979 48.0974 133.662 48.0974 134.292 48.0974C138.376 48.0974 141.289 45.5197 141.289 38.9579C141.289 34.0026 140.071 31.1307 135.457 31.1307C133.997 31.1307 132.732 31.472 131.955 31.7133H131.961Z" fill="#1E1E1E"/>
<path d="M161.657 36.6683H165.741V35.7914C165.741 32.9724 164.864 31.3658 161.027 31.3658C158.644 31.3658 156.46 31.8543 154.124 33.0666L152.323 28.5939C154.801 26.8931 158.449 25.8691 161.804 25.8691C168.366 25.8691 171.815 29.0765 171.815 35.7384V52.2638H167.248L166.518 50.0745C163.893 52.1166 161.074 52.9405 158.791 52.9405C153.783 52.9405 151.011 49.9745 151.011 44.8721C151.011 39.4755 154.707 36.6565 161.657 36.6565V36.6683ZM165.741 45.8608V40.8526H162.239C158.738 40.8526 156.89 42.2591 156.89 44.8368C156.89 46.6847 157.961 47.897 160.097 47.897C162.234 47.897 164.57 46.8789 165.735 45.8549L165.741 45.8608Z" fill="#1E1E1E"/>
<path d="M177.647 26.6587H182.267L183.238 29.2363C185.522 27.1942 188.682 25.8818 191.407 25.8818C197.145 25.8818 200.011 29.4305 200.011 35.8453V52.2764H193.496V35.6511C193.496 32.785 192.425 31.5668 188.976 31.5668C187.617 31.5668 185.669 31.9552 184.162 32.5379V52.2706H177.647V26.6587Z" fill="#1E1E1E"/>
<path d="M219.155 38.6636L228 49.2627L223.092 53.1527L212.352 39.9819V52.2817H205.837V16.0119L212.352 14.8467V38.4223L222.168 25.1044L227.029 28.506L219.155 38.6636Z" fill="#1E1E1E"/>
</g>
<defs>
<clipPath id="clip0_1048_7949">
<rect width="228" height="38.306" fill="white" transform="translate(0 14.8467)"/>
</clipPath>
</defs>
</svg>
