<svg width="228" height="68" viewBox="0 0 228 68" fill="none" xmlns="http://www.w3.org/2000/svg">
<g clip-path="url(#clip0_1048_7680)">
<path d="M48.816 39.8618L62.016 56L65.904 53.0088L54.72 39.5965L64.392 27.4868L60.456 24.6645L48.816 39.8618ZM47.016 12L42 13.0855V55.2281H47.016V12Z" fill="#1E1E1E"/>
<path d="M70.3438 47.2193C70.3438 44.2039 71.3517 41.9123 73.3677 40.3202C75.3837 38.7281 78.3357 37.9561 82.1757 37.9561H87.9597V36.0504C87.9597 31.443 85.9197 29.1272 81.8397 29.1272C80.5437 29.1272 79.1517 29.3202 77.7118 29.682C76.2718 30.0439 74.9518 30.5022 73.7518 31.0329L72.2877 27.4868C73.7757 26.6425 75.3838 26.0154 77.1118 25.557C78.8397 25.0987 80.5197 24.8816 82.1517 24.8816C89.2077 24.8816 92.7357 28.6447 92.7357 36.1711V55.2522H89.0157L88.4157 51.9715C86.9277 53.1776 85.3437 54.0943 83.6397 54.7456C81.9597 55.3969 80.3277 55.7347 78.8157 55.7347C76.1517 55.7347 74.0878 54.9868 72.5758 53.4671C71.1118 51.9474 70.3438 49.8728 70.3438 47.2193ZM79.7757 51.682C80.4717 51.682 81.1677 51.5855 81.9117 51.4167C82.6557 51.2478 83.3997 51.0066 84.1437 50.7171C84.8877 50.4276 85.5837 50.0658 86.2317 49.6557C86.8797 49.2456 87.4557 48.7873 87.9837 48.3289V41.3575H82.7757C80.1357 41.3575 78.2157 41.8158 76.9918 42.7325C75.7918 43.6491 75.1677 45.0724 75.1677 47.0504C75.1437 50.1382 76.6797 51.682 79.7757 51.682ZM106.728 55.2281H101.712V13.0855L106.728 12V55.2281ZM120.144 24.6404L124.08 27.4627L114.432 39.5724L125.616 52.9846L121.752 55.9759L108.552 39.8377L120.144 24.6404ZM130.056 47.2193C130.056 44.2039 131.064 41.9123 133.08 40.3202C135.096 38.7281 138.048 37.9561 141.888 37.9561H147.672V36.0504C147.672 31.443 145.632 29.1272 141.552 29.1272C140.232 29.1272 138.864 29.3202 137.424 29.682C135.984 30.0439 134.664 30.5022 133.464 31.0329L132 27.4868C133.488 26.6425 135.096 26.0154 136.824 25.557C138.552 25.0987 140.232 24.8816 141.864 24.8816C148.92 24.8816 152.448 28.6447 152.448 36.1711V55.2522H148.728L148.128 51.9715C146.64 53.1776 145.056 54.0943 143.352 54.7456C141.672 55.3969 140.04 55.7347 138.528 55.7347C135.864 55.7347 133.8 54.9868 132.288 53.4671C130.8 51.9474 130.056 49.8728 130.056 47.2193ZM139.488 51.682C140.184 51.682 140.88 51.5855 141.624 51.4167C142.368 51.2478 143.112 51.0066 143.856 50.7171C144.6 50.4276 145.296 50.0658 145.944 49.6557C146.592 49.2456 147.168 48.7873 147.672 48.3289V41.3575H142.464C139.824 41.3575 137.88 41.8158 136.68 42.7325C135.456 43.6491 134.856 45.0724 134.856 47.0504C134.856 50.1382 136.392 51.682 139.488 51.682ZM172.68 24.9298C176.832 24.9298 180.096 26.2807 182.448 28.9583C184.824 31.6601 186 35.4956 186 40.5132C186 45.4583 184.824 49.2456 182.472 51.8991C180.12 54.5526 176.856 55.8794 172.68 55.8794C168.528 55.8794 165.264 54.5526 162.912 51.8991C160.536 49.2456 159.36 45.4583 159.36 40.5132C159.36 35.4956 160.56 31.636 162.936 28.9583C165.312 26.2807 168.576 24.9298 172.68 24.9298ZM172.68 28.9583C170.064 28.9583 168.048 29.9474 166.656 31.9013C165.264 33.8553 164.544 36.7259 164.544 40.5132C164.544 44.2522 165.24 47.0746 166.656 48.9803C168.048 50.886 170.064 51.8509 172.68 51.8509C175.344 51.8509 177.36 50.886 178.776 48.9803C180.168 47.0746 180.864 44.2522 180.864 40.5132C180.864 36.7259 180.168 33.8553 178.776 31.9013C177.36 29.9474 175.344 28.9583 172.68 28.9583Z" fill="#1E1E1E"/>
</g>
<defs>
<clipPath id="clip0_1048_7680">
<rect width="144" height="44" fill="white" transform="translate(42 12)"/>
</clipPath>
</defs>
</svg>
