<svg width="228" height="68" viewBox="0 0 228 68" fill="none" xmlns="http://www.w3.org/2000/svg">
<g clip-path="url(#clip0_1048_7962)">
<path d="M51.8968 34.4923L51.438 34.2009C49.8815 32.6506 47.7173 31.9747 44.8214 32.1483C42.4092 32.2972 40.4993 33.2521 39.0359 34.1389C39.0359 34.1141 39.0359 34.0955 39.0359 34.0707C39.0359 33.3141 39.1227 32.4956 39.2033 31.7019C39.2839 30.8957 39.3769 30.071 39.3769 29.2958C39.3769 28.5207 39.2901 27.7456 39.0111 27.1007C38.9429 26.9333 38.7878 26.8402 38.5956 26.8402C37.8143 26.8588 36.295 27.3921 35.9229 27.7146L35.7245 28.1549C35.7121 29.0168 35.5199 31.429 35.3276 31.7205C35.3338 31.7081 35.2284 32.0119 35.2284 32.0119C34.8998 35.4535 34.8936 38.4734 35.1974 41.0716C35.2346 41.3321 35.7307 41.7227 36.1214 41.8654C36.543 42.0204 37.8701 41.6669 38.6328 41.3817C38.6204 41.3817 38.918 41.3383 38.918 41.3383C39.1599 41.3135 39.3025 41.1088 39.2901 40.836L39.3087 40.0919C39.8606 37.8533 42.093 35.1744 44.7284 34.7714C46.2229 34.5357 47.4011 34.9202 48.3312 35.931C48.4553 36.1108 48.7281 37.7293 47.7483 39.5772C47.0166 40.9476 45.5532 42.1072 43.6246 42.8265C41.8015 43.521 39.7924 43.8001 37.3182 43.7133C37.2128 43.6451 34.999 42.1444 34.999 42.1444C33.0333 40.7616 30.59 39.0439 28.3763 38.2068C27.9856 38.0579 27.2911 37.475 26.8694 37.134L26.64 36.9479C25.3626 35.9248 22.9318 34.3063 20.9846 33.0041C20.9846 33.0041 20.1041 32.415 19.9367 32.2972C19.9367 32.2227 19.9367 32.0739 19.9367 32.0739C19.9925 32.0119 21.2203 31.2802 21.2203 31.2802C22.938 30.2756 23.7317 29.7857 23.8991 29.5315C23.8619 29.5749 24.1286 29.3951 24.1286 29.3951C24.1472 29.3889 28.3825 26.9891 28.3825 26.9891C32.469 24.7443 37.0949 22.1957 39.5257 19.6842L39.6436 19.2998L39.6994 18.9587C39.8606 18.4192 39.8668 18.0099 39.7366 17.5325C39.6994 17.396 39.5754 17.2348 39.4079 17.21C37.5104 17.0178 35.061 18.1588 32.8348 20.2485C32.3325 20.7198 31.9109 20.9492 31.4644 21.1911L31.1233 21.3833C28.6677 22.7786 23.1364 26.2139 20.2343 28.068C20.4265 24.9551 21.0032 20.5214 21.7101 16.8318L21.6295 16.3915L21.3319 15.8334L21.1086 15.4365L21.0466 15.4179C20.4699 15.1265 19.9987 15.2443 19.6514 15.3311L19.0747 15.5419L18.2996 15.821C18.1445 15.852 18.0391 15.945 17.9833 16.0938C16.6005 19.4362 15.4471 24.9365 15.1742 29.3331C12.4086 27.5782 9.85375 26.3131 8.60114 25.6992L8.56394 25.6806L8.41511 25.6496C7.96243 25.5938 7.41674 25.259 6.88965 24.9365C6.83384 24.9055 5.83548 24.2544 5.83548 24.2544L4.22941 23.225L3.80773 23.1258C3.11942 23.2436 1.79239 24.1366 1.40173 24.7443C1.35212 24.8249 1.32732 24.9117 1.32732 24.9985C1.32732 25.1287 1.36452 25.2528 1.40173 25.383L1.46994 25.7116L1.54435 25.9101C2.31328 26.6976 4.26041 28.0122 6.16413 29.0354L8.3717 30.2074L11.7513 32.0553L12.328 32.5142L12.7248 32.7436C12.7248 32.7436 12.7682 32.7684 12.7992 32.787C11.9001 33.3885 6.64781 36.8921 6.64781 36.8921L3.41707 39.0377C3.11322 39.2485 1.8358 39.819 1.55055 39.9306C0.849836 40.2159 0.316546 40.6562 0.0995099 41.1274L0.0126953 41.3135L0.0995099 41.4375L0.347552 41.6235L0.676207 41.8406L1.03587 42.0824L1.37072 42.1382C1.94122 42.1568 2.77836 41.8344 4.35343 41.146C5.79827 40.5073 9.72353 38.1385 11.404 37.1278L12.1171 36.6999C12.4148 36.7247 12.7372 36.4767 13.0287 36.2534C13.3635 35.9868 14.0953 35.5341 14.5417 35.3357C14.5541 35.3357 14.8084 35.1868 15.0502 35.0566C15.0502 35.131 15.0502 35.2489 15.0502 35.2489C15.1246 40.3833 15.4161 44.1163 15.9804 46.9936V47.0432L16.0424 47.1611C16.3152 47.5641 16.6315 48.7857 16.9105 49.8585L17.5492 52.0041L17.7291 52.2025C18.0949 52.4506 19.2049 52.8784 19.9491 52.7916L20.1351 52.7668L20.2529 52.5064C20.3149 52.1839 20.3397 51.8676 20.3397 51.5204C20.3397 51.1297 20.3087 50.6957 20.2777 50.1686L20.2281 49.3934C19.9925 45.8092 19.7568 40.6314 19.7568 37.1898V36.9169C20.3707 37.2952 23.031 38.9757 23.031 38.9757C27.5639 41.915 34.4161 46.3611 38.5522 47.5331C38.7692 47.5951 38.9925 47.5455 39.1537 47.3967C39.1537 47.3905 39.7924 46.9874 39.7924 46.9874L39.9102 46.9378C40.1459 46.8262 40.3071 46.4231 40.3319 45.9891C43.8231 45.8154 48.6847 44.4698 51.2891 41.1957C52.2937 39.9244 52.7526 38.3742 52.7526 37.0472C52.7526 35.9558 52.4487 35.0132 51.903 34.4985" fill="#F8B500"/>
<path d="M136.647 31.51V35.5221H146.054V45.9584H142.841V38.3001H123.959V35.5221H133.441V31.51H121.987V28.7381H142.693V23.1882H124.306V20.4287H145.911V28.7195H148.212V31.51H136.647Z" fill="#7C7366"/>
<path d="M163.465 30.8523H154.641V23.5971H163.465V30.8523ZM166.659 20.8066H151.441V33.6552H166.659V20.8066Z" fill="#7C7366"/>
<path d="M174.528 45.8602H154.338V36.416H157.556V43.0759H174.528V45.8602Z" fill="#7C7366"/>
<path d="M174.287 20.1934H171.087V37.0602H174.287V20.1934Z" fill="#7C7366"/>
<path d="M203.344 36.4096V33.6377H177.139V36.4096H179.973V45.8538H200.938V43.0819H183.172V36.4096H203.344Z" fill="#7C7366"/>
<path d="M190.242 29.2838C186.924 29.2838 184.245 28.1366 184.245 25.5693C184.245 23.0021 186.924 21.8673 190.242 21.8673C193.559 21.8673 196.238 23.0331 196.238 25.5693C196.238 28.1056 193.547 29.2838 190.242 29.2838ZM190.242 18.9404C185.07 18.9404 180.872 21.1294 180.872 25.5755C180.872 30.0217 185.07 32.2169 190.242 32.2169C195.414 32.2169 199.618 29.9969 199.618 25.5755C199.618 21.1542 195.42 18.9404 190.242 18.9404Z" fill="#7C7366"/>
<path d="M219.901 32.8373H223.014V27.771H224.794V33.6558H227.913V20.1934H224.794V25.0984H223.014V20.1934H219.901V32.8373Z" fill="#7C7366"/>
<path d="M218.469 21.3275H212.802V19.0703H209.602V21.3275H203.891V24.0436H206.173C205.038 24.9117 204.337 26.1767 204.337 27.851C204.337 31.3422 207.4 33.1033 211.177 33.1033C214.953 33.1033 218.017 31.336 218.017 27.851C218.017 26.1767 217.316 24.9117 216.181 24.0436H218.463V21.3275H218.469ZM211.183 30.1702C209.224 30.1702 207.642 29.3268 207.642 27.4231C207.642 25.5194 209.224 24.6637 211.183 24.6637C213.143 24.6637 214.718 25.5318 214.718 27.4231C214.718 29.3144 213.13 30.1702 211.183 30.1702Z" fill="#7C7366"/>
<path d="M218.754 44.0858C215.48 44.0858 212.826 42.9386 212.826 40.3589C212.826 37.7793 215.48 36.6383 218.754 36.6383C222.028 36.6383 224.682 37.8041 224.682 40.3589C224.682 42.9138 222.028 44.0858 218.754 44.0858ZM218.766 33.7734C213.657 33.7734 209.521 35.9438 209.521 40.3713C209.521 44.7989 213.65 46.9631 218.766 46.9631C223.882 46.9631 228.006 44.7555 228.006 40.3713C228.006 35.9872 223.87 33.7734 218.766 33.7734Z" fill="#7C7366"/>
<path d="M92.4014 20.4727H104.958C110.93 20.4727 114.055 22.457 114.055 26.7915C114.055 29.8734 111.904 32.0004 109.039 32.5771V32.6825C113.15 33.1724 115.091 35.8636 115.091 38.9084C115.091 42.7282 112.301 46.021 105.355 46.021H92.4014V20.4727ZM96.4755 31.2377H104.76C107.842 31.2377 110.112 30.0719 110.112 27.3496C110.112 24.9746 108.989 23.3871 104.289 23.3871H96.4693V31.2377H96.4755ZM96.4755 43.1251H104.506C109.491 43.1251 110.812 41.1779 110.812 38.7037C110.812 35.7706 108.785 34.146 104.289 34.146H96.4693V43.1313L96.4755 43.1251Z" fill="#7C7366"/>
<path d="M64.7695 20.4727H68.8498V31.9074L82.5789 20.4727H88.3583L73.8479 32.0128L89.5613 46.0272H83.7881L68.8498 32.3353V46.0272H64.7695V20.4727Z" fill="#7C7366"/>
</g>
<defs>
<clipPath id="clip0_1048_7962">
<rect width="228" height="37.5721" fill="white" transform="translate(0 15.2139)"/>
</clipPath>
</defs>
</svg>
