<svg width="228" height="68" viewBox="0 0 228 68" fill="none" xmlns="http://www.w3.org/2000/svg">
<g clip-path="url(#clip0_1048_7641)">
<path d="M208 26.0551H202.062V17.1508H196.341V50.6211H201.348C201.808 48.6531 202.062 45.2606 202.062 42.6082V30.8635H208V26.0551ZM173.369 17.7588V22.4614H180.171V24.7319C180.171 30.7254 178.952 34.491 172.759 37.2183L175.092 41.3789C178.629 40.0513 181.953 37.5384 183.497 34.3471C185.034 37.3622 188.252 39.8354 191.368 41.0558L194.157 36.1741C188.145 33.9168 186.07 30.3979 186.07 24.6952V22.4614H192.684V17.7588H173.369ZM169.973 45.779H152.367C151.902 45.779 151.757 45.6747 151.757 45.168V38.1758H145.779V47.6104C145.779 49.6562 146.819 50.6211 148.862 50.6211H169.973V45.779ZM169.363 17.1508H163.389V23.9667H157.769V28.8823H163.389V41.3319H168.648C169.077 39.6445 169.363 36.8129 169.363 34.7657V17.1508ZM139.703 17.7955V22.5333H146.211V23.7523C146.211 28.6282 144.246 31.216 138.953 32.9019L140.955 37.421C144.605 36.5603 148.178 34.4088 149.649 31.4656C151.221 34.4088 154.659 36.4517 157.84 37.2065L160.385 32.0413C155.766 31.0353 152.441 28.521 152.441 23.7171V22.5333H158.844V17.7955H139.703Z" fill="#706F6F"/>
<path d="M90.1889 50.1455H103.85V43.8509H88.4212V17.8354H80.9814V50.1455H90.1889Z" fill="#706F6F"/>
<path d="M120.222 37.8297H126.285V43.4766C125.164 43.9069 122.989 44.3314 120.912 44.3314C114.215 44.3314 111.978 40.9212 111.978 33.9907C111.978 27.3789 114.103 23.4884 120.802 23.4884C124.531 23.4884 126.654 24.6604 128.407 26.9001L133.035 22.6337C130.213 18.5846 125.275 17.3569 120.645 17.3569C110.224 17.3569 104.748 23.0625 104.748 33.9334C104.748 44.7602 109.692 50.626 120.594 50.626C125.59 50.626 130.483 49.3439 133.141 47.4801V31.8039H120.222V37.8297Z" fill="#706F6F"/>
<path fill-rule="evenodd" clip-rule="evenodd" d="M44.9293 58.9997C58.709 58.9997 69.8586 47.8187 69.8586 34.0003C69.8586 20.2168 58.709 9.00098 44.9293 9.00098C31.1844 9.00098 20 20.1819 20 34.0003C20.0348 47.8187 31.1844 58.9997 44.9293 58.9997ZM45.9461 23.0303H43.9482V44.9356H50.925V43.0018H45.9451L45.9461 23.0303ZM37.0052 29.008C37.3966 29.0083 37.7842 28.9311 38.1459 28.781C38.5075 28.631 38.8362 28.4109 39.1129 28.1333C39.3897 27.8558 39.6092 27.5262 39.7588 27.1635C39.9085 26.8009 39.9854 26.4121 39.9852 26.0196C39.9855 25.627 39.9087 25.2382 39.7591 24.8754C39.6095 24.5126 39.3901 24.183 39.1133 23.9053C38.8365 23.6277 38.5078 23.4075 38.1461 23.2573C37.7844 23.1072 37.3967 23.03 37.0052 23.0303C36.6137 23.03 36.226 23.1072 35.8642 23.2573C35.5025 23.4075 35.1739 23.6277 34.8971 23.9053C34.6203 24.183 34.4008 24.5126 34.2512 24.8754C34.1016 25.2382 34.0248 25.627 34.0252 26.0196C34.0249 26.4121 34.1018 26.8009 34.2515 27.1635C34.4012 27.5262 34.6207 27.8558 34.8974 28.1333C35.1742 28.4109 35.5028 28.631 35.8645 28.781C36.2261 28.9311 36.6138 29.0083 37.0052 29.008ZM45.4703 13.0984C45.6519 13.1068 45.8275 13.115 45.9461 13.115V15.0836C45.7006 15.0487 45.14 15.0487 44.9293 15.0487C39.8798 15.0487 35.1464 17.0184 31.571 20.6038C27.9947 24.1902 26.0305 28.9369 26.0305 34.0006C26.0305 39.0633 27.9947 43.8458 31.6048 47.3964C35.1822 50.9828 39.9146 52.9524 44.9641 52.9524C54.9566 52.9524 63.161 45.1117 63.827 35.2665V34.9854H50.925V33.0516H65.7911V34.0006C65.7911 39.5916 63.6173 44.8655 59.69 48.8028C55.728 52.7411 50.5046 54.9211 44.9293 54.9211C39.354 54.9211 34.0948 52.7411 30.1685 48.8028C26.2413 44.8297 24.0674 39.5916 24.0674 34.0006C24.0674 22.4678 33.4288 13.0801 44.9293 13.0801C45.0747 13.0801 45.2759 13.0894 45.4703 13.0984Z" fill="#BE0737"/>
</g>
<defs>
<clipPath id="clip0_1048_7641">
<rect width="188" height="49.9987" fill="white" transform="translate(20 9.00098)"/>
</clipPath>
</defs>
</svg>
