<svg width="228" height="68" viewBox="0 0 228 68" fill="none" xmlns="http://www.w3.org/2000/svg">
<g clip-path="url(#clip0_1048_7635)">
<path d="M48.4631 9C34.6642 9 23.5 20.1938 23.5 34.0078C23.5 47.8191 34.6655 59.0013 48.4631 59.0013C62.2362 59.0013 73.4236 47.8204 73.4236 34.0065C73.4236 20.1925 62.2362 9 48.4631 9ZM48.4696 13.0534C48.7077 13.0534 49.2007 13.069 49.4622 13.0806V15.0314C49.2189 15.0185 48.6857 15.0172 48.4696 15.0172C45.9809 15.0097 43.5154 15.4971 41.2159 16.4511C38.9164 17.4052 36.8285 18.8069 35.0731 20.5752C33.3061 22.3318 31.9047 24.4225 30.9499 26.7261C29.9951 29.0297 29.5061 31.5004 29.5111 33.9948C29.5111 39.0794 31.4859 43.8397 35.0731 47.4106C36.8273 49.1809 38.9148 50.5844 41.2145 51.5396C43.5142 52.4948 45.9803 52.9827 48.4696 52.975C58.4794 52.975 66.7008 45.1588 67.3582 35.2919C67.366 35.2374 67.3647 35.0325 67.3647 34.9897H54.4341V33.0648H69.3576V33.9948C69.3576 39.6021 67.1719 44.8553 63.2274 48.8075C61.2917 50.7526 58.9912 52.2946 56.4584 53.3449C53.9256 54.3952 51.2106 54.9329 48.4696 54.9272C42.8778 54.9272 37.6328 52.7481 33.6807 48.8062C31.7364 46.8643 30.1955 44.5553 29.147 42.0128C28.0986 39.4703 27.5634 36.7446 27.5725 33.9935C27.5725 22.4547 36.9469 13.0534 48.4696 13.0534ZM40.4928 23.0176C42.1492 23.0176 43.4821 24.373 43.4821 26.0216C43.4821 27.6689 42.1492 29.0179 40.4928 29.0179C39.6989 29.0179 38.9376 28.7018 38.3762 28.1392C37.8149 27.5765 37.4995 26.8134 37.4995 26.0177C37.4995 25.2221 37.8149 24.459 38.3762 23.8963C38.9376 23.3337 39.6989 23.0176 40.4928 23.0176ZM47.4615 23.0319H49.4647V42.9966H54.4172V44.9694H47.4615V23.0319Z" fill="#BE0737"/>
<path d="M92.2161 17.4409H84.7168V49.9847H107.753V43.6497H92.2161V17.4409ZM124.254 37.5833H130.362V43.2749C129.235 43.7042 127.04 44.1336 124.95 44.1336C118.199 44.1336 115.95 40.695 115.95 33.718C115.95 27.0587 118.092 23.1377 124.843 23.1377C128.594 23.1377 130.737 24.3167 132.503 26.5736L137.165 22.2751C134.325 18.1971 129.341 16.9609 124.681 16.9609C114.178 16.9609 108.663 22.7083 108.663 33.6609C108.663 44.5616 113.644 50.4685 124.628 50.4685C129.665 50.4685 134.593 49.1805 137.27 47.3023V31.5129H124.254V37.5833ZM196.467 17.3903V9.19141H190.431V17.3903H182.453V23.174H190.431V31.2769H196.467V23.174H204.5V17.3903H196.467Z" fill="#706F6F"/>
<path d="M169.94 17.4248V36.226C169.94 41.4222 167.366 43.9774 163.011 43.9774C158.656 43.9774 156.083 41.4222 156.083 36.226V17.4248H148.722V36.3363C148.722 46.5988 154.169 50.4512 162.747 50.4512L163.011 50.4499L163.275 50.4512C171.855 50.4512 177.303 46.5975 177.303 36.3363V17.4248H169.94Z" fill="#706F6F"/>
</g>
<defs>
<clipPath id="clip0_1048_7635">
<rect width="181" height="50" fill="white" transform="translate(23.5 9)"/>
</clipPath>
</defs>
</svg>
