<svg width="228" height="68" viewBox="0 0 228 68" fill="none" xmlns="http://www.w3.org/2000/svg">
<g clip-path="url(#clip0_1048_7685)">
<path d="M15.8782 35.1266L7.19797 22.6494H0V45.9591H7.54315V33.4819L16.2233 45.9591H23.4213V22.6494H15.8782V35.1266Z" fill="#03C75A"/>
<path d="M34.9642 22.6494L25.8271 45.9591H33.5936L34.7002 42.8728H43.4617L44.5683 45.9591H52.3348L43.1876 22.6494H34.9642ZM36.4667 37.2687L39.0759 29.9895L41.685 37.2687H36.4769H36.4667Z" fill="#03C75A"/>
<path d="M84.66 37.1063H95.2894V31.5022H84.66V28.355H95.4011V22.6494H77.2285V45.9591H95.6245V40.2433H84.66V37.1063Z" fill="#03C75A"/>
<path d="M61.5841 37.9794L56.1018 22.6494H48.3252L57.4724 45.9591H65.6958L74.8328 22.6494H67.0663L61.5841 37.9794Z" fill="#03C75A"/>
<path d="M116.264 37.6646C118.974 36.5276 120.345 34.0809 120.345 30.9641C120.345 28.02 119.269 25.8372 117.157 24.487C115.188 23.2281 112.639 22.6494 109.127 22.6494H99.2891V45.9591H106.599V39.4413H109.228L113.685 45.9591H121.451L115.563 37.9591L116.274 37.6646H116.264ZM110.477 33.5022H106.477V28.5885H110.477C111.837 28.5885 112.934 29.6849 112.934 31.0454C112.934 32.4058 111.837 33.5022 110.477 33.5022Z" fill="#03C75A"/>
<path d="M175.381 27.3906C169.574 27.3906 165.351 31.4008 165.351 36.9338C165.351 42.4668 169.564 46.4769 175.381 46.4769C181.198 46.4769 185.412 42.4668 185.412 36.9338C185.412 31.4008 181.198 27.3906 175.381 27.3906ZM175.381 40.7003C173.249 40.7003 171.757 39.1571 171.757 36.9439C171.757 34.7307 173.249 33.1876 175.381 33.1876C177.513 33.1876 179.005 34.7307 179.005 36.9439C179.005 39.1571 177.513 40.7003 175.381 40.7003Z" fill="#03C75A"/>
<path d="M199.036 37.9002C199.036 39.5652 198.213 40.5195 196.772 40.5195C195.33 40.5195 194.487 39.5652 194.487 37.9002V27.8799L187.919 29.423V38.154C187.919 43.1286 191.482 46.4687 196.772 46.4687C202.061 46.4687 205.614 43.1286 205.614 38.154V27.8799L199.046 29.423V37.9002H199.036Z" fill="#03C75A"/>
<path d="M221.492 23.0572V28.3872C220.284 27.7374 218.904 27.4024 217.472 27.4024C212.02 27.4024 208.051 31.4125 208.051 36.9455C208.051 42.4785 212.01 46.509 217.472 46.509C219.371 46.509 221.157 45.8491 222.518 44.6511L223.076 45.9201H227.99V21.5039L221.482 23.0572H221.492ZM218.274 40.7932C216.091 40.7932 214.508 39.1689 214.508 36.9354C214.508 34.7019 216.091 33.0775 218.274 33.0775C220.457 33.0775 222.041 34.7019 222.041 36.9354C222.041 39.1689 220.457 40.7932 218.274 40.7932Z" fill="#03C75A"/>
<path d="M155.503 45.91H162.356V21.5039L155.503 23.0471V45.91Z" fill="#03C75A"/>
<path d="M141.148 40.0823C138.122 40.0823 135.919 37.6864 135.919 34.3869C135.919 31.0874 138.122 28.6407 141.148 28.6407C143.117 28.6407 144.823 29.7473 145.686 31.595L152.274 30.0112C150.64 25.2295 146.366 22.2549 141.127 22.2549C134.142 22.2549 128.863 27.4732 128.863 34.3869C128.863 41.3006 134.132 46.4884 141.127 46.4884C146.884 46.4884 151.422 42.8945 152.67 37.3412L152.711 37.1584H145.604C144.782 38.996 143.117 40.0924 141.137 40.0924L141.148 40.0823Z" fill="#03C75A"/>
</g>
<defs>
<clipPath id="clip0_1048_7685">
<rect width="228" height="24.9949" fill="white" transform="translate(0 21.502)"/>
</clipPath>
</defs>
</svg>
