<svg width="228" height="68" viewBox="0 0 228 68" fill="none" xmlns="http://www.w3.org/2000/svg">
<g clip-path="url(#clip0_1048_7697)">
<path d="M135.035 24.8803H159.376C159.999 24.8803 160.505 24.3727 160.505 23.7476V10.1326C160.505 9.50757 159.999 9 159.376 9H127.538C127.046 9 126.573 9.20209 126.231 9.56396L117.343 18.9304L108.455 9.56396C108.113 9.20679 107.64 9 107.148 9H77.6907C77.194 9 76.7208 9.20209 76.3835 9.56396L67.9966 18.4276C67.678 18.766 67.5 19.2077 67.5 19.673V57.8674C67.5 58.4924 68.006 59 68.6292 59H82.2027C82.8259 59 83.3319 58.4924 83.3319 57.8674V26.9669C83.3319 25.933 84.1659 25.0964 85.1967 25.0964H99.6557C100.687 25.0964 101.521 25.933 101.521 26.9669V57.8674C101.521 58.4924 102.027 59 102.65 59H116.223C116.846 59 117.352 58.4924 117.352 57.8674V49.0931L126.231 58.4407C126.573 58.7979 127.042 59 127.538 59H159.376C159.999 59 160.505 58.4924 160.505 57.8674V44.2524C160.505 43.6273 159.999 43.1197 159.376 43.1197H135.035C134.004 43.1197 133.17 42.2832 133.17 41.2493V26.746C133.17 25.7121 134.004 24.8756 135.035 24.8756V24.8803Z" fill="#003569"/>
</g>
<defs>
<clipPath id="clip0_1048_7697">
<rect width="93" height="50" fill="white" transform="translate(67.5 9)"/>
</clipPath>
</defs>
</svg>
