<svg width="228" height="68" viewBox="0 0 228 68" fill="none" xmlns="http://www.w3.org/2000/svg">
<g clip-path="url(#clip0_1048_7673)">
<path d="M163.853 33.0048C161.456 39.8958 155.758 44.1429 148.435 44.1429C139.367 44.1429 132.24 37.0509 132.24 27.5715C132.24 18.092 139.367 11 148.435 11C155.95 11 162.232 15.8403 164.241 22.6659C164.629 24.5205 164.045 24.7216 163.077 24.9176C162.041 25.1187 160.489 24.9176 159.516 24.3195C158.48 23.7214 156.923 21.4696 156.923 21.4696C155.174 18.4187 152.001 16.6294 148.435 16.6294C142.732 16.6294 137.943 21.6656 137.943 27.5664C137.943 33.4672 142.737 38.4382 148.435 38.4382C152.389 38.4382 155.562 36.2517 157.502 33.0048C157.502 33.0048 158.475 31.2155 160.872 30.552C163.465 29.9539 164.045 30.7531 164.045 30.7531C164.045 30.7531 164.629 30.9541 163.848 33.0048H163.853Z" fill="#005386"/>
<path d="M79.8996 16.6344C85.6662 16.6344 90.3914 21.6707 90.3914 27.5715C90.3914 33.4722 85.6613 38.4432 79.8996 38.4432V44.1429C89.0308 44.1429 96.0941 37.0509 96.0941 27.5715C96.0941 18.092 89.0357 11 79.8996 11V16.6344ZM79.8996 38.4432C74.1969 38.4432 69.4716 33.4069 69.4716 27.5715C69.4716 21.736 74.2018 16.6344 79.8996 16.6344V11C70.8322 11 63.7051 18.0267 63.7051 27.5715C63.7051 37.1163 70.8322 44.1429 79.8996 44.1429V38.4432Z" fill="#005386"/>
<path d="M183.806 16.6344C189.509 16.6344 194.234 21.6707 194.234 27.5715C194.234 33.4722 189.504 38.4432 183.806 38.4432V44.1429C192.873 44.1429 200 37.0509 200 27.5715C200 18.092 192.873 11 183.806 11V16.6344ZM183.806 16.6344V11C174.67 11 167.611 18.0267 167.611 27.5715C167.611 37.1163 174.67 44.1429 183.806 44.1429V38.4432C178.039 38.4432 173.309 33.4069 173.309 27.5715C173.309 21.736 178.039 16.6344 183.806 16.6344Z" fill="#005386"/>
<path d="M121.356 30.552C123.365 30.7531 123.753 31.6125 123.169 33.2059C122.004 36.2568 117.859 38.6392 114.101 38.6392C109.759 38.6392 107.559 36.4528 105.81 34.5931C104.189 32.8038 101.016 32.6027 100.043 33.0048C99.0708 33.4019 99.4588 34.9952 99.8468 35.8547C102.632 41.092 108.335 44.1429 113.905 44.1429C119.799 44.3389 124.917 41.2931 128.09 36.2568C131.072 31.2205 129.839 24.9226 122.78 24.9226L106.974 24.7266C104.577 24.7266 104.381 23.3344 104.965 21.6757C106.586 18.6951 110.147 16.4384 114.489 16.4384C118.831 16.4384 120.772 19.0922 122.196 20.4795C123.748 21.8717 126.73 22.2688 128.09 21.6707C128.866 21.2736 128.675 20.2784 128.09 19.0872C125.502 13.9806 119.799 11 114.096 11C109.111 11 103.604 13.1864 100.235 18.4237C97.5137 22.9323 97.7102 30.356 107.554 30.356L121.351 30.552H121.356Z" fill="#005386"/>
<path d="M44.204 44.1429C53.2714 44.1429 60.3986 37.0509 60.3986 27.5715C60.3986 18.092 53.2763 11 44.204 11V16.6344C49.9068 16.6344 54.632 21.4747 54.632 27.5715C54.632 33.6683 49.9018 38.4432 44.204 38.4432V44.1429ZM44.204 11C35.0728 11 28.0095 18.0267 28.0095 27.5715V49.5109C28.0095 49.5109 27.813 52.3608 28.9821 54.3512C29.9546 55.7434 31.3791 56.804 32.7397 57C33.7122 56.804 33.9038 55.5424 33.9038 55.5424V40.4939C36.6888 42.6803 40.25 44.1379 44.204 44.1379V38.4382C38.4375 38.4382 33.7122 33.4019 33.7122 27.5664C33.7122 21.731 38.4424 16.6294 44.204 16.6294V11Z" fill="#005386"/>
</g>
<defs>
<clipPath id="clip0_1048_7673">
<rect width="172" height="46" fill="white" transform="translate(28 11)"/>
</clipPath>
</defs>
</svg>
