<svg width="228" height="68" viewBox="0 0 228 68" fill="none" xmlns="http://www.w3.org/2000/svg">
<g clip-path="url(#clip0_1048_7667)">
<path d="M66.7346 43.8047C64.8062 42.8929 63.2243 42.1544 63.2243 40.6693C63.2243 39.5265 64.1212 38.7014 65.9029 38.7014C66.5552 38.7014 67.0934 38.7798 67.6478 38.8788C67.9275 38.9334 68.2111 38.9652 68.4958 38.9737C70.0532 38.9737 70.9298 38.0372 71.5128 36.255L71.7574 35.5289C71.5046 35.4299 68.9647 34.2995 65.6583 34.2995C60.3908 34.2995 57.6103 37.7154 57.6103 41.2633C57.6103 43.0497 58.1648 44.3492 59.0332 45.3682C60.1503 46.6801 61.7403 47.5382 63.2284 48.2767C65.3973 49.3493 67.3543 50.1497 67.3543 51.7421C67.3543 53.1613 65.911 53.9699 63.9745 53.9699C61.3244 53.9699 59.0087 52.4352 58.7152 52.2537L56.5381 56.3792C56.9254 56.6019 59.7263 58.4007 64.3414 58.4007C69.2541 58.4007 72.9764 55.5458 72.9764 51.1563C72.9764 46.7915 69.5273 45.1743 66.7346 43.8047ZM85.9575 45.8426L94.8697 34.7822H88.5219L81.4076 44.3286H81.3016V34.7822H76.0668V58.2109H76.3807C78.6434 58.2109 81.3383 57.1465 81.3383 53.3222V47.9425H81.4443L88.6931 57.918H95.3549L85.9575 45.8426ZM95.1674 9.68262C93.3246 10.0333 90.593 11.7289 90.6012 14.7199C90.6093 17.4427 92.8027 19.0888 92.8109 22.6491C92.8231 25.3306 91.3635 27.1376 89.7817 28.136C90.4218 28.0782 91.123 28.0411 91.8895 28.0411C92.7743 28.0286 93.6588 28.0838 94.5354 28.2061L102.804 17.9336C100.719 14.7807 98.1399 11.9937 95.1674 9.68262ZM102.115 37.4142C103.158 35.7723 103.289 33.1608 103.378 30.4999C103.476 28.0163 103.99 26.1475 107.268 26.1351C107.998 26.1351 108.691 26.2341 109.942 26.23C114.753 26.2094 117.892 24.5344 119.849 23.4329C115.854 20.8586 110.028 18.2265 102.804 17.9336C102.331 19.2785 98.6736 29.5799 98.3963 30.4133C98.4371 30.4628 99.0772 31.1889 99.8803 32.608C101.063 34.5594 101.695 36.2096 102.115 37.4142Z" fill="#EA002C"/>
<path d="M84.6452 28.9973C84.2293 28.9973 84.0214 28.7168 83.9643 28.23L81.5345 5.70063C81.4937 5.2757 81.3877 4.5001 81.3877 4.22369C81.3877 3.77814 81.6731 3.54298 82.0115 3.54298C82.9899 3.53885 88.3308 4.80538 93.9978 8.82362C92.367 9.2898 89.4112 11.0101 89.4234 14.5663C89.4356 17.7182 91.6657 19.4509 91.678 22.6111C91.6943 27.7514 85.8561 28.9932 84.6493 28.9973M102.592 38.7789C102.661 38.9786 102.747 39.1719 102.849 39.3565C102.979 39.5792 103.146 39.6865 103.358 39.6865C103.522 39.674 103.681 39.6291 103.827 39.5545L124.139 29.9998C124.514 29.8183 125.231 29.4924 125.468 29.3521C125.712 29.2118 125.823 29.0097 125.823 28.7993C125.822 28.6769 125.788 28.5569 125.725 28.4528C125.399 27.9206 123.727 26.126 120.934 24.1664C118.716 25.404 115.251 27.3141 110.102 27.3347C108.838 27.3347 108.553 27.2522 107.692 27.2522C105.177 27.2605 104.549 28.3496 104.455 30.5815C104.443 31.0064 104.435 31.5716 104.41 32.1905C104.329 34.1872 104.096 36.9348 102.592 38.7789ZM129.573 58.5276C127.657 63.7753 125.182 64.4519 123.067 64.4519C121.57 64.4519 120.47 63.9115 120.351 63.8496L121.154 61.3949C121.216 61.4279 122.027 61.8693 122.928 61.8693C124.608 61.8693 125.664 60.9246 126.597 57.9625L120.808 45.2064C120.914 45.1734 121.599 44.9589 122.382 44.9589C124.233 44.9589 124.64 46.1305 125.113 47.2981C125.521 48.2799 128.155 54.7115 128.155 54.7115H128.244L131.298 45.2064H134.466L129.573 58.5276ZM171.46 57.9006L167.033 51.3905L171.366 45.0208H167.632L164.615 49.6908L162.797 46.803C162.193 45.8665 161.651 44.9176 160.269 44.9465C160.073 44.949 159.878 44.9697 159.686 45.0084C158.919 45.1528 158.283 45.487 158.19 45.5365C158.239 45.6148 160.31 48.5893 162.295 51.4813L157.933 57.9006H161.667L164.701 53.214L167.73 57.9006H171.46ZM137.034 49.3897V57.9212H140.202V49.0514C140.373 48.8905 141.499 47.8055 142.746 47.8055C144.377 47.8055 145.221 49.0019 145.221 50.5531V57.9212H148.38V49.7527C148.38 45.8747 145.433 45.0167 143.786 45.0167C141.808 45.0167 140.402 46.2749 139.982 46.6957C139.847 46.1759 139.244 45.2972 137.862 45.2972C137.373 45.2972 136.737 45.4416 136.68 45.4622C136.773 45.9408 137.034 47.0835 137.034 49.3897ZM155.442 41.345C155.439 41.6008 155.385 41.8536 155.285 42.0886C155.185 42.3237 155.041 42.5364 154.859 42.7147C154.678 42.8929 154.463 43.0332 154.228 43.1273C153.993 43.2214 153.742 43.2677 153.489 43.2633C153.236 43.2671 152.986 43.2205 152.751 43.1261C152.516 43.0317 152.302 42.8914 152.121 42.7132C151.94 42.535 151.796 42.3224 151.696 42.0876C151.596 41.8529 151.543 41.6005 151.54 41.345C151.54 40.2847 152.408 39.4225 153.489 39.4225C154.569 39.4225 155.442 40.2847 155.442 41.345ZM155.054 57.9006H151.915V45.194H155.054V57.9006ZM110.705 46.6627C110.929 46.4771 112.54 44.9589 114.786 44.9589C117.245 44.9589 119.055 46.2584 119.055 49.4144V57.9212H115.777V50.3303C115.777 48.9276 115.015 47.8426 113.575 47.8426C112.201 47.8426 111.035 48.94 110.705 49.2164V57.9212H107.452V38.5231H108.141C109.702 38.5231 110.709 39.6741 110.709 41.2047L110.705 46.6627Z" fill="#F47725"/>
</g>
<defs>
<clipPath id="clip0_1048_7667">
<rect width="116" height="62" fill="white" transform="translate(56 2.99902)"/>
</clipPath>
</defs>
</svg>
