<svg width="228" height="68" viewBox="0 0 228 68" fill="none" xmlns="http://www.w3.org/2000/svg">
<path fill-rule="evenodd" clip-rule="evenodd" d="M184.424 49.013C181.474 49.013 179.969 50.958 179.734 51.2527C178.966 49.8391 177.61 49.013 175.812 49.013C173.218 49.013 171.743 50.5167 171.505 50.7814C171.39 50.3689 170.857 49.2787 169.176 49.2787C168.705 49.2787 167.997 49.4266 167.938 49.4266C167.997 49.75 168.321 51.2821 168.321 53.4033V62.7151H171.743V53.2268C171.8 53.1677 173.071 51.8709 174.602 51.8709C176.167 51.8709 176.904 53.0205 176.904 54.582V62.7147H180.324V53.2264C180.413 53.139 181.651 51.8706 183.213 51.8706C184.776 51.8706 185.483 53.0202 185.483 54.5816V62.7144H188.934V54.0516C188.935 50.988 187.195 49.013 184.424 49.013ZM147.002 60.24C144.672 60.24 143.022 58.4129 143.022 56.0263C143.022 53.374 144.908 51.7838 147.002 51.7838C148.122 51.7838 148.594 52.1082 149.333 52.1082C150.128 52.1082 150.57 51.7234 150.954 50.9577C151.189 50.5474 151.309 50.2801 151.309 50.2801C151.13 50.191 149.422 49.0127 146.472 49.0127C142.165 49.0127 139.601 52.1079 139.601 56.0263C139.601 60.3285 142.551 63.0085 146.472 63.0085C149.333 63.0085 151.042 61.8606 151.366 61.6249L150.187 59.2977C149.922 59.4736 148.682 60.24 147.002 60.24ZM109.552 49.013C106.279 49.013 103.536 51.6656 103.536 56.0266C103.536 60.4767 106.221 63.0088 110.202 63.0088C113.386 63.0088 115.036 61.6253 115.243 61.5061C115.243 61.5061 114.919 61.0061 114.831 60.8592C114.388 60.1212 113.888 59.8869 113.326 59.8869C112.206 59.8869 112.06 60.3575 110.525 60.3575C107.901 60.3575 106.987 58.3251 106.927 56.9706H115.684V55.9385C115.684 51.7838 113.298 49.013 109.552 49.013ZM106.927 54.5225C106.927 52.9924 107.989 51.5768 109.522 51.5768C111.203 51.5768 112.117 53.0495 112.146 54.5225H106.927ZM121.524 58.9443V44.9772C121.524 43.4157 120.491 42.207 118.84 42.207H118.133V60.2991C118.133 61.9791 119.164 63.0085 120.965 63.0085C123.176 63.0085 123.825 61.4477 123.825 59.946C123.736 60.004 123.264 60.1823 122.792 60.1823C121.997 60.1823 121.524 59.7393 121.524 58.9443ZM98.6995 58.4719V51.8435H101.56L102.563 49.2784H98.6995V45.2722C98.6995 45.2722 98.4055 45.2419 98.3758 45.2722C96.8706 45.2722 95.2788 45.8901 95.2788 49.2493V49.2787H92.7725V51.8439H95.2788V59.6516C95.2788 61.8609 96.6057 63.0091 98.4643 63.0091C99.9678 63.0091 101.913 62.5689 101.913 59.5931C101.796 59.6519 101.058 60.1215 100.263 60.1215C99.1417 60.1209 98.6995 59.4449 98.6995 58.4719ZM130.989 49.013C127.716 49.013 124.944 51.6656 124.944 56.0266C124.944 60.4767 127.628 63.0088 131.641 63.0088C134.794 63.0088 136.445 61.6253 136.652 61.5061C136.652 61.5061 136.356 61.0061 136.268 60.8592C135.797 60.1212 135.296 59.8869 134.736 59.8869C133.615 59.8869 133.467 60.3575 131.934 60.3575C129.338 60.3575 128.424 58.3251 128.365 56.9706H137.124V55.9385C137.125 51.7838 134.706 49.013 130.989 49.013ZM128.335 54.5225C128.335 52.9924 129.427 51.5768 130.931 51.5768C132.612 51.5768 133.555 53.0495 133.583 54.5225H128.335ZM159.18 63.0085C154.993 63.0085 152.487 60.2687 152.487 56.0263C152.487 51.8132 154.964 49.0127 159.18 49.0127C163.396 49.0127 165.876 51.8132 165.876 56.0263C165.876 60.004 163.604 63.0085 159.18 63.0085ZM159.18 60.3876C161.274 60.3876 162.485 58.5898 162.485 56.0266C162.485 53.4634 161.302 51.6363 159.18 51.6363C157.117 51.6363 155.877 53.4331 155.877 56.0266C155.877 58.5297 157.057 60.3876 159.18 60.3876Z" fill="#F47725"/>
<path fill-rule="evenodd" clip-rule="evenodd" d="M49.2196 47.8036C47.1548 46.8319 45.4448 46.0672 45.4448 44.4764C45.4448 43.2671 46.4176 42.4132 48.3337 42.4132C49.0121 42.4132 49.6031 42.471 50.192 42.5878C50.4873 42.6482 50.8096 42.707 51.1063 42.707C52.7578 42.707 53.7005 41.7053 54.3195 39.8193L54.585 39.053C54.3195 38.9351 51.6077 37.7579 48.0684 37.7579C42.4357 37.7579 39.458 41.3514 39.458 45.1243C39.458 47.0092 40.048 48.3647 40.9613 49.4542C42.1718 50.8381 43.8531 51.7527 45.4442 52.5184C47.7732 53.6683 49.8656 54.4927 49.8656 56.1717C49.8656 57.6754 48.3333 58.5293 46.2696 58.5293C43.4092 58.5293 40.9329 56.9097 40.6379 56.7335L38.3086 61.0941C38.7211 61.3288 41.6998 63.2153 46.6528 63.2153C51.9026 63.2153 55.8831 60.2089 55.8831 55.5539C55.8831 50.9569 52.1983 49.2486 49.2196 47.8036ZM69.7732 49.9562L79.3259 38.2582H72.515L64.9078 48.3347H64.7878V38.2582H59.1862V63.0077H59.5393C61.9585 63.0077 64.846 61.8889 64.846 57.8517V52.1646H64.9365L72.6911 62.7143H79.828L69.7732 49.9562ZM79.6202 11.7383C77.6453 12.1225 74.7251 13.9183 74.7561 17.0719C74.7561 19.9301 77.1155 21.6976 77.1155 25.44C77.1155 28.2689 75.5518 30.1842 73.8713 31.246C74.6167 31.1842 75.3644 31.1547 76.1124 31.1575C77.8528 31.1271 78.883 31.3037 78.9431 31.3037L87.789 20.4595C85.3421 16.7785 82.4816 13.9486 79.6202 11.7383ZM87.0527 41.0567C88.1728 39.317 88.3198 36.5495 88.4096 33.75C88.5276 31.1271 89.0577 29.1531 92.5669 29.1244C93.3626 29.1244 94.0998 29.2412 95.4266 29.2412C100.588 29.2145 103.95 27.4444 106.044 26.2651C101.768 23.5558 95.5456 20.7857 87.7893 20.4602C87.2889 21.8765 83.3662 32.7784 83.0719 33.6626C83.1304 33.6893 83.8098 34.4567 84.664 35.9594C85.933 38.0219 86.6108 39.7616 87.0527 41.0567Z" fill="#EA002C"/>
<path fill-rule="evenodd" clip-rule="evenodd" d="M68.3858 32.1583C67.9158 32.1583 67.7077 31.8649 67.6482 31.3338C66.7789 23.4082 65.9138 15.4821 65.053 7.55562C64.9945 7.08331 64.877 6.28822 64.877 5.99215C64.877 5.52251 65.2023 5.25781 65.5557 5.25781C66.5876 5.25781 72.3078 6.58229 78.3831 10.8551C76.6428 11.3258 73.458 13.1536 73.487 16.9258C73.487 20.2263 75.8765 22.0818 75.9052 25.4124C75.9052 30.8321 69.6548 32.1583 68.3858 32.1583ZM87.5811 42.5014C87.671 42.7357 87.7592 42.9437 87.849 43.0906C87.9954 43.3249 88.1714 43.4434 88.3795 43.4434C88.5268 43.4434 88.7032 43.3846 88.9096 43.2972C89.3512 43.0906 107.841 34.4854 110.612 33.2207C111.026 33.0131 111.792 32.6887 112.059 32.5408C112.323 32.3929 112.441 32.1576 112.441 31.9533C112.441 31.8045 112.382 31.687 112.323 31.5681C111.97 31.0084 110.171 29.1245 107.192 27.0603C104.833 28.3561 101.116 30.3615 95.6046 30.3892C94.2464 30.3892 93.9524 30.3027 93.0378 30.3027C90.326 30.3304 89.6763 31.48 89.557 33.8366C89.557 34.2805 89.5296 34.8686 89.5296 35.5175C89.4408 37.6378 89.1752 40.5551 87.5811 42.5014Z" fill="#F47725"/>
</svg>
